<svg width="28" height="18" viewBox="0 0 28 18" fill="none" xmlns="http://www.w3.org/2000/svg">
<g id="eye" clip-path="url(#clip0_319_3218)">
<g id="Group">
<path id="Vector" d="M14.0166 17.6552C22.1328 17.6552 27.7376 11.096 27.7376 9.04687C27.7376 6.9877 22.1227 0.438599 14.0166 0.438599C6.01109 0.438599 0.285645 6.9877 0.285645 9.04687C0.285645 11.096 6.00105 17.6552 14.0166 17.6552ZM14.0166 16.0681C7.39726 16.0681 2.04346 10.4631 2.04346 9.04687C2.04346 7.85155 7.39726 2.02565 14.0166 2.02565C20.6059 2.02565 25.9799 7.85155 25.9799 9.04687C25.9799 10.4631 20.6059 16.0681 14.0166 16.0681ZM14.0166 14.6719C17.1406 14.6719 19.6518 12.1105 19.6518 9.04687C19.6518 5.90289 17.1406 3.42186 14.0166 3.42186C10.8727 3.42186 8.36154 5.90289 8.36154 9.04687C8.36154 12.1105 10.8727 14.6719 14.0166 14.6719ZM14.0166 10.9152C12.972 10.9152 12.1283 10.0714 12.1283 9.04687C12.1283 8.01226 12.972 7.17855 14.0166 7.17855C15.0513 7.17855 15.895 8.01226 15.895 9.04687C15.895 10.0714 15.0513 10.9152 14.0166 10.9152Z" fill="#B1B1B1"/>
</g>
</g>
<defs>
<clipPath id="clip0_319_3218">
<rect width="27.452" height="17.2266" fill="white" transform="translate(0.285645 0.428589)"/>
</clipPath>
</defs>
</svg>
