<svg width="16" height="17" viewBox="0 0 16 17" fill="none" xmlns="http://www.w3.org/2000/svg">
<g id="Group">
<path id="Vector" d="M8 15.9787C10.1804 15.9787 11.9608 12.7567 11.9608 8.43731C11.9608 4.09433 10.1883 0.872377 8 0.872377C5.81177 0.872377 4.03923 4.09433 4.03923 8.43731C4.03923 12.7567 5.81962 15.9787 8 15.9787ZM8 1.82093C9.53728 1.82093 10.9098 4.87825 10.9098 8.43731C10.9098 11.9336 9.53728 15.0223 8 15.0223C6.46276 15.0223 5.09021 11.9336 5.09021 8.43731C5.09021 4.87825 6.46276 1.82093 8 1.82093ZM7.49021 0.982126V15.8297H8.51769V0.982126H7.49021ZM8 11.3692C5.58433 11.3692 3.44314 12.0042 2.34511 13.0154L3.13726 13.6661C4.17256 12.843 5.85884 12.3961 8 12.3961C10.1412 12.3961 11.8275 12.843 12.8628 13.6661L13.6549 13.0154C12.5569 12.0042 10.4157 11.3692 8 11.3692ZM15.2392 7.90422H0.760787V8.93113H15.2392V7.90422ZM8 5.51323C10.4157 5.51323 12.5569 4.87825 13.6549 3.86698L12.8628 3.21633C11.8275 4.0316 10.1412 4.48628 8 4.48628C5.85884 4.48628 4.17256 4.0316 3.13726 3.21633L2.34511 3.86698C3.44314 4.87825 5.58433 5.51323 8 5.51323ZM8 16.4176C12.3765 16.4176 16 12.7881 16 8.42159C16 4.04729 12.3687 0.425537 7.99217 0.425537C3.62353 0.425537 0 4.04729 0 8.42159C0 12.7881 3.63138 16.4176 8 16.4176ZM8 15.3515C4.21177 15.3515 1.06667 12.208 1.06667 8.42159C1.06667 4.63523 4.20393 1.49168 7.99217 1.49168C11.7804 1.49168 14.9334 4.63523 14.9334 8.42159C14.9334 12.208 11.7883 15.3515 8 15.3515Z" fill="#333333"/>
</g>
</svg>
