<svg width="22" height="21" viewBox="0 0 22 21" fill="none" xmlns="http://www.w3.org/2000/svg">
<g id="map.fill" clip-path="url(#clip0_349_4260)">
<g id="Group">
<path id="Vector" d="M0.714355 18.7722C0.714355 19.5054 1.13623 19.9273 1.85945 19.9273C2.1206 19.9273 2.37172 19.847 2.70319 19.6661L6.92195 17.386V0.742048C6.74114 0.83245 6.54025 0.932896 6.35945 1.03334L1.59828 3.76548C0.995605 4.09696 0.714355 4.5791 0.714355 5.25209V18.7722ZM8.29806 17.1951L13.3606 20.0378C13.5112 20.1182 13.672 20.1885 13.8226 20.2287V3.83579L8.86056 0.802316C8.6898 0.691825 8.48891 0.611468 8.29806 0.571289V17.1951ZM15.1887 20.1985C15.2891 20.1684 15.3996 20.1282 15.49 20.0679L20.7233 17.0947C21.326 16.7632 21.6072 16.2811 21.6072 15.6081V2.07798C21.6072 1.33468 21.1853 0.922851 20.4622 0.922851C20.201 0.922851 19.9498 1.00321 19.6184 1.18401L15.1887 3.64495V20.1985Z" fill="#333333"/>
</g>
</g>
<defs>
<clipPath id="clip0_349_4260">
<rect width="20.8929" height="19.6976" fill="white" transform="translate(0.714355 0.571289)"/>
</clipPath>
</defs>
</svg>
