<svg width="23" height="23" viewBox="0 0 23 23" fill="none" xmlns="http://www.w3.org/2000/svg">
<g id="hand.wave" clip-path="url(#clip0_2124_45319)">
<g id="Group">
<path id="Vector" d="M19.9372 20.337C22.8552 17.419 23.324 13.7979 21.3201 9.57918L18.6833 4.02449C18.4958 3.63777 18.2732 3.32136 18.0271 3.07527C17.1482 2.19636 15.8708 2.24324 15.0271 3.08699C14.4529 3.66121 14.2771 4.51668 14.6521 5.44246L15.4372 7.31746C15.4607 7.36433 15.4607 7.41121 15.4255 7.44636C15.3786 7.48152 15.3318 7.4698 15.2849 7.43465L8.64038 0.790117C7.67944 -0.182539 6.46069 -0.182539 5.53491 0.743242C5.19506 1.07136 5.00756 1.50496 4.99585 1.95027C4.03491 1.21199 2.9685 1.23543 2.14819 2.05574C1.3396 2.86433 1.31616 3.9659 2.00756 4.9034C1.58569 4.9034 1.18725 5.0909 0.882561 5.39558C0.0270917 6.25105 0.0505293 7.42293 0.964592 8.33699L1.89038 9.26277C1.43335 9.25105 0.976311 9.46199 0.624748 9.81355C-0.242439 10.6808 -0.195564 11.9112 0.730217 12.837L7.85522 19.962C11.7341 23.8409 16.4333 23.8409 19.9372 20.337ZM18.7536 19.2354C15.824 22.1651 12.1443 22.0714 8.81616 18.7315L1.94897 11.8644C1.58569 11.5128 1.57397 11.0323 1.91381 10.6925C2.25366 10.3526 2.74585 10.3526 3.09741 10.7042L7.3396 14.9347C7.64428 15.2394 8.0896 15.2042 8.35913 14.9347C8.6521 14.6534 8.68725 14.1964 8.38256 13.8917L2.05444 7.55183C1.70288 7.20027 1.67944 6.73152 2.01928 6.39168C2.35913 6.04011 2.86303 6.04011 3.2146 6.39168L9.12085 12.3097C9.42553 12.6144 9.88256 12.5675 10.1521 12.2979C10.4333 12.0167 10.4802 11.5597 10.1755 11.255L3.23803 4.31746C2.88647 3.9659 2.86303 3.47371 3.2146 3.13386C3.54272 2.79402 4.04663 2.80574 4.39819 3.1573L11.3357 10.0948C11.6169 10.3878 12.074 10.3761 12.3552 10.0948C12.6482 9.80183 12.6716 9.33308 12.3904 9.05183L6.47241 3.13386C6.12085 2.7823 6.10913 2.30183 6.44897 1.95027C6.80053 1.61043 7.281 1.62215 7.63256 1.97371L15.7888 10.13C16.199 10.5519 16.6911 10.5401 17.031 10.2003C17.324 9.9073 17.4529 9.52058 17.2185 8.91121L15.7536 5.06746C15.5544 4.54011 15.7419 4.11824 16.1404 3.93074C16.5857 3.73152 16.9841 3.94246 17.2419 4.49324L19.9607 10.2354C21.7771 14.0792 21.0622 16.9151 18.7536 19.2354Z" fill="black" fill-opacity="0.85"/>
</g>
</g>
<defs>
<clipPath id="clip0_2124_45319">
<rect width="22.5357" height="22.8962" fill="white" transform="translate(0.00390625 0.0236816)"/>
</clipPath>
</defs>
</svg>
