<svg width="24" height="25" viewBox="0 0 24 25" fill="none" xmlns="http://www.w3.org/2000/svg">
<g id="hand.thumbsup.fill" clip-path="url(#clip0_2124_45175)">
<g id="Group">
<path id="Vector" d="M0.00195312 16.512C0.00195312 19.9807 2.16992 22.887 5.07617 22.887H7.13867C5.02929 21.3518 4.16211 19.0315 4.16211 16.3948C4.17383 13.4651 5.31054 11.3675 6.31836 10.1018H4.64257C2.02929 10.1018 0.00195312 12.9143 0.00195312 16.512ZM5.77929 16.4182C5.77929 20.6956 9.11914 24.0003 14.5684 24.0003H16.1622C17.6739 24.0003 18.7989 23.8948 19.4317 23.719C20.3458 23.4964 21.2247 22.9339 21.2247 21.8323C21.2247 21.3753 21.1075 21.0471 20.9668 20.801C20.8731 20.6487 20.8965 20.5315 21.0372 20.4729C21.7637 20.1682 22.3614 19.4885 22.3614 18.5628C22.3614 18.0354 22.209 17.5667 21.9512 17.2503C21.8223 17.0745 21.834 16.9104 22.0567 16.7932C22.5723 16.4885 22.9473 15.8323 22.9473 15.0706C22.9473 14.5198 22.7715 13.9456 22.4668 13.6643C22.2793 13.5003 22.3145 13.3831 22.502 13.2073C22.8653 12.9026 23.0997 12.3753 23.0997 11.7073C23.0997 10.5823 22.2208 9.65649 21.0606 9.65649H16.9356C15.8926 9.65649 15.2012 9.11743 15.2012 8.25024C15.2012 6.69165 17.1582 3.80884 17.1582 1.74634C17.1582 0.656494 16.4551 0.0236816 15.5411 0.0236816C14.6973 0.0236816 14.2872 0.597901 13.8418 1.4768C12.0958 4.86352 9.77539 7.60571 8.00586 9.94946C6.50586 11.9417 5.77929 13.6643 5.77929 16.4182Z" fill="black" fill-opacity="0.85"/>
</g>
</g>
<defs>
<clipPath id="clip0_2124_45175">
<rect width="23.0977" height="24.668" fill="white" transform="translate(0.00195312 0.0236816)"/>
</clipPath>
</defs>
</svg>
